name C:/MyDriveSym/Projects/mobilecap/Data\Session20210910_0001\mocap\ForceDataProcessed\DJ1_forces.mot
datacolumns 28
datarows 6
range 1.22450000 1.22700000
endheader 
time	R_ground_force_vx	R_ground_force_vy	R_ground_force_vz	R_ground_force_px	R_ground_force_py	R_ground_force_pz	R_ground_torque_x	R_ground_torque_y	R_ground_torque_z	L_ground_force_vx	L_ground_force_vy	L_ground_force_vz	L_ground_force_px	L_ground_force_py	L_ground_force_pz	L_ground_torque_x	L_ground_torque_y	L_ground_torque_z	3_ground_force_vx	3_ground_force_vy	3_ground_force_vz	3_ground_force_px	3_ground_force_py	3_ground_force_pz	3_ground_torque_x	3_ground_torque_y	3_ground_torque_z	
          1.22450000	       -230.90656500	        635.61036900	        -34.88109600	         -0.13181000	          0.00600000	         -0.44108800	          0.00000000	          1.78175000	          0.00000000	       -350.73010400	        805.74530700	         38.10592800	         -0.11926100	          0.00600000	         -0.76196000	          0.00000000	         -3.30626000	          0.00000000	          0.00000000	          0.00000000	          0.00000000	          0.00000000	          0.00000000	          0.00000000	          0.00000000	          0.00000000	          0.00000000	
          1.22500000	       -220.22033500	        636.42849500	        -34.62026700	         -0.13244300	          0.00600000	         -0.44099900	          0.00000000	          1.76375900	          0.00000000	       -331.34026400	        802.07699200	         38.61787600	         -0.11983400	          0.00600000	         -0.76177300	          0.00000000	         -3.45383600	          0.00000000	          0.00000000	          0.00000000	          0.00000000	          0.00000000	          0.00000000	          0.00000000	          0.00000000	          0.00000000	          0.00000000	
          1.22550000	       -209.85457700	        637.32716400	        -34.37171000	         -0.13307600	          0.00600000	         -0.44090900	          0.00000000	          1.74846200	          0.00000000	       -311.70962700	        798.01923600	         39.02683500	         -0.12040900	          0.00600000	         -0.76156800	          0.00000000	         -3.59169400	          0.00000000	          0.00000000	          0.00000000	          0.00000000	          0.00000000	          0.00000000	          0.00000000	          0.00000000	          0.00000000	          0.00000000	
          1.22600000	       -199.88140800	        638.35562000	        -34.14667900	         -0.13370600	          0.00600000	         -0.44081800	          0.00000000	          1.73642100	          0.00000000	       -292.00381300	        793.68252000	         39.34236700	         -0.12098700	          0.00600000	         -0.76134800	          0.00000000	         -3.71936000	          0.00000000	          0.00000000	          0.00000000	          0.00000000	          0.00000000	          0.00000000	          0.00000000	          0.00000000	          0.00000000	          0.00000000	
          1.22650000	       -190.36582500	        639.55832600	        -33.95612300	         -0.13433200	          0.00600000	         -0.44072500	          0.00000000	          1.72806400	          0.00000000	       -272.37938300	        789.17056200	         39.57644300	         -0.12156500	          0.00600000	         -0.76111600	          0.00000000	         -3.83738900	          0.00000000	          0.00000000	          0.00000000	          0.00000000	          0.00000000	          0.00000000	          0.00000000	          0.00000000	          0.00000000	          0.00000000	
          1.22700000	       -181.36542400	        640.97476000	        -33.81011600	         -0.13495400	          0.00600000	         -0.44063200	          0.00000000	          1.72367000	          0.00000000	       -252.98253300	        784.57934600	         39.74177300	         -0.12214300	          0.00600000	         -0.76087500	          0.00000000	         -3.94641300	          0.00000000	          0.00000000	          0.00000000	          0.00000000	          0.00000000	          0.00000000	          0.00000000	          0.00000000	          0.00000000	          0.00000000	
